M48
;Layer_Color=9474304
;FILE_FORMAT=2:4
METRIC,LZ
;TYPE=PLATED
T1F00S00C0.7112
T2F00S00C1.0000
T3F00S00C1.0160
T4F00S00C1.0200
%
T01
X11938Y42799
X123063Y60071
X118618Y79756
T02
X73688Y38735
X77188
T03
X119507Y42545
Y45085
Y47625
Y50165
Y52705
X74295Y57531
Y60071
Y62611
Y65151
X110109Y89281
X112649
X115189
X117729
T04
X85217Y38608
X100457
Y41148
Y43688
Y46228
Y48768
Y51308
Y53848
Y56388
Y58928
Y61468
Y64008
Y66548
Y69088
Y71628
Y74168
Y76708
Y79248
X85217
Y76708
Y74168
Y71628
Y69088
Y66548
Y64008
Y61468
Y58928
Y56388
Y53848
Y51308
Y48768
Y46228
Y43688
Y41148
X118364Y64516
Y67056
Y69596
Y72136
Y74676
Y77216
Y79756
Y82296
X100457Y81788
Y84328
Y86868
X85217
Y84328
Y81788
M30
