G04*
G04 #@! TF.GenerationSoftware,Altium Limited,Altium Designer,22.5.1 (42)*
G04*
G04 Layer_Color=65535*
%FSLAX44Y44*%
%MOMM*%
G71*
G04*
G04 #@! TF.SameCoordinates,8A75C3A4-9842-482E-9D60-312BCB363DCA*
G04*
G04*
G04 #@! TF.FilePolarity,Positive*
G04*
G01*
G75*
%ADD10C,0.2000*%
%ADD11C,0.2540*%
D10*
X833120Y367030D02*
X871220D01*
X833120D02*
Y887730D01*
X871220D01*
Y367030D02*
Y887730D01*
X985520D02*
X1023620D01*
Y367030D02*
Y887730D01*
X985520Y367030D02*
X1023620D01*
X985520D02*
Y887730D01*
X801370Y894080D02*
X1055370D01*
X966470Y881380D02*
Y957580D01*
X941070Y881380D02*
Y957580D01*
X915670Y881380D02*
Y957580D01*
X890270Y881380D02*
Y957580D01*
X966470Y347980D02*
Y398780D01*
X890270D02*
X966470D01*
X890270Y347980D02*
Y398780D01*
X801370Y347980D02*
X1055370D01*
X801370D02*
Y894080D01*
X1055370Y347980D02*
Y894080D01*
X1159510Y552450D02*
X1220470D01*
X1159510Y400050D02*
Y552450D01*
Y400050D02*
X1220470D01*
Y552450D01*
X1212850Y534670D02*
X1220470D01*
X1212850Y519430D02*
Y534670D01*
Y519430D02*
X1220470D01*
X1212850Y433070D02*
X1220470D01*
X1212850Y417830D02*
Y433070D01*
Y417830D02*
X1220470D01*
X1184910Y910590D02*
Y918210D01*
X1169670Y910590D02*
X1184910D01*
X1169670D02*
Y918210D01*
X1108710Y910590D02*
Y918210D01*
X1093470Y910590D02*
X1108710D01*
X1093470D02*
Y918210D01*
X1075690Y857250D02*
Y918210D01*
X1202690D01*
Y857250D02*
Y918210D01*
X1075690Y857250D02*
X1202690D01*
Y848360D02*
X1202690Y619760D01*
X1164590D02*
X1336040D01*
Y848360D01*
X1164590D02*
X1336040D01*
X1164590Y619760D02*
Y848360D01*
X713740Y364490D02*
X792480D01*
X713740Y349250D02*
Y430530D01*
Y349250D02*
X792480D01*
Y430530D01*
X713740D02*
X792480D01*
X717550Y659130D02*
X725170D01*
Y643890D02*
Y659130D01*
X717550Y643890D02*
X725170D01*
X717550Y582930D02*
X725170D01*
Y567690D02*
Y582930D01*
X717550Y567690D02*
X725170D01*
X717550Y549910D02*
X778510D01*
X717550D02*
Y676910D01*
X778510D01*
Y549910D02*
Y676910D01*
D11*
X813051Y978912D02*
X810511Y981451D01*
X805433D01*
X802894Y978912D01*
Y976373D01*
X805433Y973833D01*
X810511D01*
X813051Y971294D01*
Y968755D01*
X810511Y966216D01*
X805433D01*
X802894Y968755D01*
X818129Y981451D02*
X828286D01*
X823207D01*
Y966216D01*
X833364D02*
Y981451D01*
X838443Y976373D01*
X843521Y981451D01*
Y966216D01*
X848599Y978912D02*
X858756Y968755D01*
X848599D02*
X858756Y978912D01*
X848599Y973833D02*
X858756D01*
X853678Y968755D02*
Y978912D01*
X863834Y966216D02*
X868913D01*
X866374D01*
Y981451D01*
X863834Y978912D01*
X1161034Y576321D02*
Y561086D01*
X1168652D01*
X1171191Y563625D01*
Y573782D01*
X1168652Y576321D01*
X1161034D01*
X1176269Y573782D02*
X1186426Y563625D01*
X1176269D02*
X1186426Y573782D01*
X1176269Y568703D02*
X1186426D01*
X1181347Y563625D02*
Y573782D01*
X1191504D02*
X1194043Y576321D01*
X1199122D01*
X1201661Y573782D01*
Y571243D01*
X1199122Y568703D01*
X1196582D01*
X1199122D01*
X1201661Y566164D01*
Y563625D01*
X1199122Y561086D01*
X1194043D01*
X1191504Y563625D01*
X1077214Y942081D02*
Y926846D01*
X1084831D01*
X1087371Y929385D01*
Y939542D01*
X1084831Y942081D01*
X1077214D01*
X1092449Y939542D02*
X1102606Y929385D01*
X1092449D02*
X1102606Y939542D01*
X1092449Y934464D02*
X1102606D01*
X1097527Y929385D02*
Y939542D01*
X1117841Y926846D02*
X1107684D01*
X1117841Y937003D01*
Y939542D01*
X1115302Y942081D01*
X1110223D01*
X1107684Y939542D01*
X1166114Y869692D02*
X1176271Y859535D01*
X1166114D02*
X1176271Y869692D01*
X1166114Y864613D02*
X1176271D01*
X1171192Y859535D02*
Y869692D01*
X1181349Y856996D02*
X1186427D01*
X1183888D01*
Y872231D01*
X1181349Y869692D01*
X1273811Y673100D02*
X1258576D01*
X1263654Y678178D01*
X1258576Y683257D01*
X1273811D01*
Y688335D02*
X1258576D01*
Y695953D01*
X1261115Y698492D01*
X1266193D01*
X1268733Y695953D01*
Y688335D01*
X1258576Y703570D02*
X1271272D01*
X1273811Y706109D01*
Y711188D01*
X1271272Y713727D01*
X1258576D01*
X1276350Y718805D02*
Y728962D01*
X1258576Y744197D02*
X1261115Y739119D01*
X1266193Y734040D01*
X1271272D01*
X1273811Y736580D01*
Y741658D01*
X1271272Y744197D01*
X1268733D01*
X1266193Y741658D01*
Y734040D01*
X1261115Y749275D02*
X1258576Y751814D01*
Y756893D01*
X1261115Y759432D01*
X1271272D01*
X1273811Y756893D01*
Y751814D01*
X1271272Y749275D01*
X1261115D01*
X1258576Y774667D02*
Y764510D01*
X1266193D01*
X1263654Y769589D01*
Y772128D01*
X1266193Y774667D01*
X1271272D01*
X1273811Y772128D01*
Y767050D01*
X1271272Y764510D01*
X1261115Y779745D02*
X1258576Y782285D01*
Y787363D01*
X1261115Y789902D01*
X1271272D01*
X1273811Y787363D01*
Y782285D01*
X1271272Y779745D01*
X1261115D01*
X715264Y454401D02*
X725421D01*
X720342D01*
Y439166D01*
X730499Y451862D02*
X740656Y441705D01*
X730499D02*
X740656Y451862D01*
X730499Y446783D02*
X740656D01*
X735577Y441705D02*
Y451862D01*
X719074Y700781D02*
Y685546D01*
X726692D01*
X729231Y688085D01*
Y698242D01*
X726692Y700781D01*
X719074D01*
X734309Y698242D02*
X744466Y688085D01*
X734309D02*
X744466Y698242D01*
X734309Y693164D02*
X744466D01*
X739387Y688085D02*
Y698242D01*
X749544Y685546D02*
X754622D01*
X752083D01*
Y700781D01*
X749544Y698242D01*
M02*
