G04*
G04 #@! TF.GenerationSoftware,Altium Limited,Altium Designer,22.5.1 (42)*
G04*
G04 Layer_Physical_Order=2*
G04 Layer_Color=16711680*
%FSLAX44Y44*%
%MOMM*%
G71*
G04*
G04 #@! TF.SameCoordinates,8A75C3A4-9842-482E-9D60-312BCB363DCA*
G04*
G04*
G04 #@! TF.FilePolarity,Positive*
G04*
G01*
G75*
%ADD11C,0.2540*%
%ADD18O,2.0000X1.5240*%
%ADD19O,2.0000X1.5240*%
%ADD20O,1.5240X2.0000*%
%ADD21R,2.0000X1.5240*%
%ADD22C,2.0000*%
%ADD23C,1.2700*%
D11*
X1065530Y425450D02*
X1193800D01*
X1022350Y562610D02*
X1157130D01*
X1192690Y527050D01*
X1155700Y537210D02*
X1191260Y501650D01*
X1022350Y537210D02*
X1155700D01*
X1022350Y511810D02*
X1157130D01*
X1192690Y476250D01*
X1191260Y501650D02*
X1195070D01*
X1022350Y486410D02*
X1157130D01*
X1192690Y450850D01*
X852170Y386080D02*
Y411480D01*
X1199644Y436880D02*
X1230630Y467865D01*
Y600710D01*
X1199644Y430024D02*
Y436880D01*
X1197450Y792825D02*
Y811530D01*
X1024730Y816610D02*
X1055210Y786130D01*
X1022350Y740410D02*
X1149510D01*
X1181260Y772160D01*
X1055210Y786130D02*
X1190754D01*
X1181260Y772160D02*
X1183640D01*
X1190754Y786130D02*
X1197450Y792825D01*
X1022350Y715010D02*
X1149510D01*
X1181260Y746760D01*
X1186020Y822960D02*
X1197450Y811530D01*
X1183640Y822960D02*
X1186020D01*
X1177290Y829310D02*
Y892810D01*
X1151890Y826930D02*
Y892810D01*
Y826930D02*
X1181260Y797560D01*
X1177290Y829310D02*
X1183640Y822960D01*
X849790Y487680D02*
X852170D01*
X729140Y595975D02*
X738375Y586740D01*
X750730D01*
X729140Y595975D02*
Y605444D01*
X738375Y614680D01*
Y621535D01*
X750730Y586740D02*
X849790Y487680D01*
X738375Y621535D02*
X742950Y626110D01*
X711418Y547370D02*
X725170D01*
X728980Y399340D02*
X740970Y387350D01*
X742950Y420370D02*
X777240Y386080D01*
X728980Y399340D02*
Y543560D01*
X742950Y420370D02*
Y575310D01*
X725170Y547370D02*
X728980Y543560D01*
X709930Y548858D02*
Y620870D01*
Y548858D02*
X711418Y547370D01*
X745330Y600710D02*
X832960Y513080D01*
X852170D01*
X742950Y600710D02*
X745330D01*
X771880Y357150D02*
Y387350D01*
Y357150D02*
X788670Y340360D01*
X1057910D01*
X1061720Y344170D01*
Y421640D01*
X1065530Y425450D01*
X1054626Y850156D02*
X1060668Y856198D01*
X1024422Y850156D02*
X1054626D01*
X1018380Y838546D02*
Y844114D01*
X1007110Y831850D02*
X1011684D01*
X1004570Y829310D02*
X1007110Y831850D01*
X1004570Y817880D02*
Y829310D01*
X1011684Y831850D02*
X1018380Y838546D01*
X1060668Y856198D02*
Y858302D01*
X1056640Y862330D02*
X1060668Y858302D01*
X1018380Y844114D02*
X1024422Y850156D01*
X1056640Y862330D02*
Y939800D01*
X883702Y967958D02*
X884972Y969228D01*
X1027212D01*
X883702Y967958D02*
X883920Y967740D01*
X1027212Y969228D02*
X1056640Y939800D01*
X880328Y952282D02*
X882432D01*
X883920Y953770D01*
Y967740D01*
X877570Y955040D02*
X880328Y952282D01*
X795020Y701200D02*
Y953552D01*
X796508Y955040D01*
X877570D01*
X742950Y651510D02*
X745330D01*
X795020Y701200D01*
X740570Y651510D02*
X742950D01*
X709930Y620870D02*
X740570Y651510D01*
X777240Y386080D02*
X852170D01*
X1022350Y816610D02*
X1024730D01*
X1181260Y746760D02*
X1183640D01*
X1192690Y450850D02*
X1195070D01*
X1192690Y476250D02*
X1195070D01*
X1192690Y527050D02*
X1195070D01*
D18*
X852170Y767080D02*
D03*
Y792480D02*
D03*
Y817880D02*
D03*
Y843280D02*
D03*
Y386080D02*
D03*
Y411480D02*
D03*
Y462280D02*
D03*
Y487680D02*
D03*
Y513080D02*
D03*
Y538480D02*
D03*
Y563880D02*
D03*
Y589280D02*
D03*
Y741680D02*
D03*
Y716280D02*
D03*
Y690880D02*
D03*
Y665480D02*
D03*
Y640080D02*
D03*
Y614680D02*
D03*
X1004570Y767080D02*
D03*
Y792480D02*
D03*
Y843280D02*
D03*
Y386080D02*
D03*
Y411480D02*
D03*
Y436880D02*
D03*
Y462280D02*
D03*
Y487680D02*
D03*
Y513080D02*
D03*
Y538480D02*
D03*
Y563880D02*
D03*
Y589280D02*
D03*
Y741680D02*
D03*
Y716280D02*
D03*
Y690880D02*
D03*
Y665480D02*
D03*
Y640080D02*
D03*
Y614680D02*
D03*
X852170Y436880D02*
D03*
X1004570Y868680D02*
D03*
Y817880D02*
D03*
X852170Y868680D02*
D03*
X1183640Y645160D02*
D03*
Y670560D02*
D03*
Y797560D02*
D03*
Y695960D02*
D03*
Y772160D02*
D03*
Y721360D02*
D03*
Y746760D02*
D03*
D19*
X1195070Y425450D02*
D03*
Y501650D02*
D03*
Y450850D02*
D03*
Y476250D02*
D03*
Y527050D02*
D03*
X742950Y600710D02*
D03*
Y575310D02*
D03*
Y651510D02*
D03*
Y626110D02*
D03*
D20*
X1126490Y892810D02*
D03*
X1101090D02*
D03*
X1177290D02*
D03*
X1151890D02*
D03*
D21*
X1183640Y822960D02*
D03*
D22*
X771880Y387350D02*
D03*
X736880D02*
D03*
D23*
X1230630Y600710D02*
D03*
X1186180Y797560D02*
D03*
X1193800Y427990D02*
D03*
M02*
