G04*
G04 #@! TF.GenerationSoftware,Altium Limited,Altium Designer,22.5.1 (42)*
G04*
G04 Layer_Color=12632256*
%FSLAX44Y44*%
%MOMM*%
G71*
G04*
G04 #@! TF.SameCoordinates,8A75C3A4-9842-482E-9D60-312BCB363DCA*
G04*
G04*
G04 #@! TF.FilePolarity,Positive*
G04*
G01*
G75*
%ADD18O,2.0000X1.5240*%
%ADD19O,2.0000X1.5240*%
%ADD20O,1.5240X2.0000*%
%ADD21R,2.0000X1.5240*%
%ADD22C,2.0000*%
D18*
X852170Y767080D02*
D03*
Y792480D02*
D03*
Y817880D02*
D03*
Y843280D02*
D03*
Y386080D02*
D03*
Y411480D02*
D03*
Y462280D02*
D03*
Y487680D02*
D03*
Y513080D02*
D03*
Y538480D02*
D03*
Y563880D02*
D03*
Y589280D02*
D03*
Y741680D02*
D03*
Y716280D02*
D03*
Y690880D02*
D03*
Y665480D02*
D03*
Y640080D02*
D03*
Y614680D02*
D03*
X1004570Y767080D02*
D03*
Y792480D02*
D03*
Y843280D02*
D03*
Y386080D02*
D03*
Y411480D02*
D03*
Y436880D02*
D03*
Y462280D02*
D03*
Y487680D02*
D03*
Y513080D02*
D03*
Y538480D02*
D03*
Y563880D02*
D03*
Y589280D02*
D03*
Y741680D02*
D03*
Y716280D02*
D03*
Y690880D02*
D03*
Y665480D02*
D03*
Y640080D02*
D03*
Y614680D02*
D03*
X852170Y436880D02*
D03*
X1004570Y868680D02*
D03*
Y817880D02*
D03*
X852170Y868680D02*
D03*
X1183640Y645160D02*
D03*
Y670560D02*
D03*
Y797560D02*
D03*
Y695960D02*
D03*
Y772160D02*
D03*
Y721360D02*
D03*
Y746760D02*
D03*
D19*
X1195070Y425450D02*
D03*
Y501650D02*
D03*
Y450850D02*
D03*
Y476250D02*
D03*
Y527050D02*
D03*
X742950Y600710D02*
D03*
Y575310D02*
D03*
Y651510D02*
D03*
Y626110D02*
D03*
D20*
X1126490Y892810D02*
D03*
X1101090D02*
D03*
X1177290D02*
D03*
X1151890D02*
D03*
D21*
X1183640Y822960D02*
D03*
D22*
X771880Y387350D02*
D03*
X736880D02*
D03*
M02*
