G04*
G04 #@! TF.GenerationSoftware,Altium Limited,Altium Designer,22.5.1 (42)*
G04*
G04 Layer_Color=128*
%FSLAX44Y44*%
%MOMM*%
G71*
G04*
G04 #@! TF.SameCoordinates,8A75C3A4-9842-482E-9D60-312BCB363DCA*
G04*
G04*
G04 #@! TF.FilePolarity,Positive*
G04*
G01*
G75*
%ADD25C,0.0508*%
D25*
X847070Y767080D02*
X857270D01*
X852170Y761980D02*
Y772180D01*
X847070Y792480D02*
X857270D01*
X852170Y787380D02*
Y797580D01*
X847070Y817880D02*
X857270D01*
X852170Y812780D02*
Y822980D01*
X847070Y843280D02*
X857270D01*
X852170Y838180D02*
Y848380D01*
X847070Y386080D02*
X857270D01*
X852170Y380980D02*
Y391180D01*
X847070Y411480D02*
X857270D01*
X852170Y406380D02*
Y416580D01*
X847070Y462280D02*
X857270D01*
X852170Y457180D02*
Y467380D01*
X847070Y487680D02*
X857270D01*
X852170Y482580D02*
Y492780D01*
X847070Y513080D02*
X857270D01*
X852170Y507980D02*
Y518180D01*
X847070Y538480D02*
X857270D01*
X852170Y533380D02*
Y543580D01*
X847070Y563880D02*
X857270D01*
X852170Y558780D02*
Y568980D01*
X847070Y589280D02*
X857270D01*
X852170Y584180D02*
Y594380D01*
X847070Y741680D02*
X857270D01*
X852170Y736580D02*
Y746780D01*
X847070Y716280D02*
X857270D01*
X852170Y711180D02*
Y721380D01*
X847070Y690880D02*
X857270D01*
X852170Y685780D02*
Y695980D01*
X847070Y665480D02*
X857270D01*
X852170Y660380D02*
Y670580D01*
X847070Y640080D02*
X857270D01*
X852170Y634980D02*
Y645180D01*
X847070Y614680D02*
X857270D01*
X852170Y609580D02*
Y619780D01*
X999470Y767080D02*
X1009670D01*
X1004570Y761980D02*
Y772180D01*
X999470Y792480D02*
X1009670D01*
X1004570Y787380D02*
Y797580D01*
X999470Y843280D02*
X1009670D01*
X1004570Y838180D02*
Y848380D01*
X999470Y386080D02*
X1009670D01*
X1004570Y380980D02*
Y391180D01*
X999470Y411480D02*
X1009670D01*
X1004570Y406380D02*
Y416580D01*
X999470Y436880D02*
X1009670D01*
X1004570Y431780D02*
Y441980D01*
X999470Y462280D02*
X1009670D01*
X1004570Y457180D02*
Y467380D01*
X999470Y487680D02*
X1009670D01*
X1004570Y482580D02*
Y492780D01*
X999470Y513080D02*
X1009670D01*
X1004570Y507980D02*
Y518180D01*
X999470Y538480D02*
X1009670D01*
X1004570Y533380D02*
Y543580D01*
X999470Y563880D02*
X1009670D01*
X1004570Y558780D02*
Y568980D01*
X999470Y589280D02*
X1009670D01*
X1004570Y584180D02*
Y594380D01*
X999470Y741680D02*
X1009670D01*
X1004570Y736580D02*
Y746780D01*
X999470Y716280D02*
X1009670D01*
X1004570Y711180D02*
Y721380D01*
X999470Y690880D02*
X1009670D01*
X1004570Y685780D02*
Y695980D01*
X999470Y665480D02*
X1009670D01*
X1004570Y660380D02*
Y670580D01*
X999470Y640080D02*
X1009670D01*
X1004570Y634980D02*
Y645180D01*
X999470Y614680D02*
X1009670D01*
X1004570Y609580D02*
Y619780D01*
X847070Y436880D02*
X857270D01*
X852170Y431780D02*
Y441980D01*
X999470Y868680D02*
X1009670D01*
X1004570Y863580D02*
Y873780D01*
X999470Y817880D02*
X1009670D01*
X1004570Y812780D02*
Y822980D01*
X847070Y868680D02*
X857270D01*
X852170Y863580D02*
Y873780D01*
X1189990Y425450D02*
X1200150D01*
X1195070Y420370D02*
Y430530D01*
X1189990Y501650D02*
X1200150D01*
X1195070Y496570D02*
Y506730D01*
X1189990Y450850D02*
X1200150D01*
X1195070Y445770D02*
Y455930D01*
X1189990Y476250D02*
X1200150D01*
X1195070Y471170D02*
Y481330D01*
X1189990Y527050D02*
X1200150D01*
X1195070Y521970D02*
Y532130D01*
X1121410Y892810D02*
X1131570D01*
X1126490Y887730D02*
Y897890D01*
X1096010Y892810D02*
X1106170D01*
X1101090Y887730D02*
Y897890D01*
X1172210Y892810D02*
X1182370D01*
X1177290Y887730D02*
Y897890D01*
X1146810Y892810D02*
X1156970D01*
X1151890Y887730D02*
Y897890D01*
X1178540Y645160D02*
X1188740D01*
X1183640Y640060D02*
Y650260D01*
X1178540Y670560D02*
X1188740D01*
X1183640Y665460D02*
Y675660D01*
X1178540Y822960D02*
X1188740D01*
X1183640Y817860D02*
Y828060D01*
X1178540Y797560D02*
X1188740D01*
X1183640Y792460D02*
Y802660D01*
X1178540Y695960D02*
X1188740D01*
X1183640Y690860D02*
Y701060D01*
X1178540Y772160D02*
X1188740D01*
X1183640Y767060D02*
Y777260D01*
X1178540Y721360D02*
X1188740D01*
X1183640Y716260D02*
Y726460D01*
X1178540Y746760D02*
X1188740D01*
X1183640Y741660D02*
Y751860D01*
X766880Y387350D02*
X776880D01*
X771880Y382350D02*
Y392350D01*
X731880Y387350D02*
X741880D01*
X736880Y382350D02*
Y392350D01*
X737870Y600710D02*
X748030D01*
X742950Y595630D02*
Y605790D01*
X737870Y575310D02*
X748030D01*
X742950Y570230D02*
Y580390D01*
X737870Y651510D02*
X748030D01*
X742950Y646430D02*
Y656590D01*
X737870Y626110D02*
X748030D01*
X742950Y621030D02*
Y631190D01*
X1227074Y600710D02*
X1234186D01*
X1230630Y597154D02*
Y604266D01*
X1182624Y797560D02*
X1189736D01*
X1186180Y794004D02*
Y801116D01*
X1190244Y427990D02*
X1197356D01*
X1193800Y424434D02*
Y431546D01*
M02*
